<svg width="122" height="122" viewBox="0 0 122 122" fill="none" xmlns="http://www.w3.org/2000/svg">
<g clip-path="url(#clip0_1215_13)">
<path d="M107.239 2.76953H15.0712C8.21893 2.76953 2.66406 8.3244 2.66406 15.1767V107.344C2.66406 114.196 8.21893 119.751 15.0712 119.751H107.239C114.091 119.751 119.646 114.196 119.646 107.344V15.1767C119.646 8.3244 114.091 2.76953 107.239 2.76953Z" fill="url(#paint0_linear_1215_13)"/>
<path d="M107.239 2.76953H15.0712C8.21893 2.76953 2.66406 8.3244 2.66406 15.1767V107.344C2.66406 114.196 8.21893 119.751 15.0712 119.751H107.239C114.091 119.751 119.646 114.196 119.646 107.344V15.1767C119.646 8.3244 114.091 2.76953 107.239 2.76953Z" stroke="url(#paint1_linear_1215_13)" stroke-width="3.5449"/>
<path d="M68.3095 29.4627V22H47.4141V29.4627H68.3095Z" fill="white"/>
<path d="M68.3095 74.24V66.7773H47.4141V74.24H68.3095Z" fill="white"/>
<path d="M68.3128 22L66.8203 29.2623C76.671 30.269 84.2456 38.3942 84.2456 48.1373C84.2456 53.3504 82.0441 58.0961 78.4994 61.5115C75.4397 64.4596 72.1188 66.3086 67.5666 66.776L68.3128 74.2386C75.1039 73.8791 79.7307 71.0748 84.2456 66.6527C89.171 61.907 92.1934 55.3637 92.1934 48.1373C92.1934 34.1878 82.4919 22.8269 68.3128 22Z" fill="white"/>
<path d="M45.9219 27.9727H67.0209C78.4588 27.9727 87.7128 37.5784 87.7128 49.3656C87.7128 60.617 78.866 69.7636 67.9833 69.7636H45.9219V27.9727Z" fill="white"/>
<path d="M72.6554 51.5887V54.1545C72.6554 58.1238 69.408 61.3712 65.4387 61.3712H51.4062L53.01 56.0791H65.3186C66.4412 56.0791 67.3232 55.1567 67.3232 54.0744V51.7089C67.3232 50.5862 66.4412 49.7043 65.3186 49.7043H57.6208L63.4341 39.641H52.609V34.3086H66.5213H72.6554L66.7617 44.4922C70.1297 45.1335 72.6554 48.0605 72.6554 51.5887Z" fill="#386DB4"/>
<path d="M31 22H50.4029L49.6567 74.2386L53.388 101.104H32.4925C32.4925 101.104 33.857 76.9982 34.7313 61.5521C35.6056 46.106 31 22 31 22Z" fill="white"/>
</g>
<defs>
<linearGradient id="paint0_linear_1215_13" x1="61.155" y1="0.997082" x2="61.155" y2="121.524" gradientUnits="userSpaceOnUse">
<stop stop-color="#3669AE"/>
<stop offset="1" stop-color="#2B558C"/>
</linearGradient>
<linearGradient id="paint1_linear_1215_13" x1="18.387" y1="0.997081" x2="61.1677" y2="120.89" gradientUnits="userSpaceOnUse">
<stop stop-color="#386CB3"/>
<stop offset="1" stop-color="#2B558C"/>
</linearGradient>
<clipPath id="clip0_1215_13">
<rect width="122" height="122" fill="white"/>
</clipPath>
</defs>
</svg>

