<?xml version="1.0" encoding="utf-8"?>
<svg viewBox="0 0 110 39" fill="none" xmlns="http://www.w3.org/2000/svg">
  <rect width="110" height="39" rx="4" fill="url(#paint0_linear_1215_23)" transform="matrix(1, 0, 0, 1, -1.7763568394002505e-15, 0)"/>
  <path d="M9.84 11.475H17.798C21.294 11.475 22.789 13.637 22.789 16.121C22.789 18.467 21.432 20.997 17.798 20.997H12.968C12.715 20.997 12.577 21.112 12.577 21.388V27H9.863V20.859C9.863 19.111 10.599 18.398 12.301 18.398H17.89C19.431 18.398 20.052 17.34 20.052 16.259C20.052 15.132 19.385 14.189 17.913 14.189H9.84V11.475ZM28.1751 14.856H33.1661V17.202H28.8881C27.8071 17.202 27.3241 17.708 27.3241 18.766V27H24.8861V18.398C24.8861 15.96 25.7831 14.856 28.1751 14.856ZM40.2476 14.856H42.8006C46.0206 14.856 48.0676 16.834 48.0676 20.928C48.0676 25.022 46.0206 27 42.8006 27H40.2476C37.0046 27 34.9806 25.022 34.9806 20.928C34.9806 16.834 37.0046 14.856 40.2476 14.856ZM42.5706 17.202H40.4776C38.3616 17.202 37.4416 18.306 37.4416 20.928C37.4416 23.55 38.3616 24.631 40.4776 24.631H42.5706C44.6636 24.631 45.6066 23.55 45.6066 20.928C45.6066 18.306 44.6636 17.202 42.5706 17.202ZM54.3673 14.856H61.1063V17.202H54.3903C53.2633 17.202 52.8033 17.662 52.8033 18.582C52.8033 19.433 53.1713 19.893 54.5283 19.893H57.3803C60.7383 19.893 61.5893 21.434 61.5893 23.32C61.5893 25.482 60.4623 27 57.6103 27H50.5493V24.631H57.6103C58.7373 24.631 59.1973 24.24 59.1973 23.297C59.1973 22.331 58.6913 21.94 57.4723 21.94H54.5973C51.2393 21.94 50.4113 20.261 50.4113 18.398C50.4113 16.213 51.5383 14.856 54.3673 14.856ZM68.8788 14.856H72.2368C75.4568 14.856 77.4808 16.834 77.4808 20.928C77.4808 25.022 75.4568 27 72.2368 27H66.8548V31.876H64.4168V20.054C64.4168 16.558 65.9578 14.856 68.8788 14.856ZM66.8548 20.169V24.631H71.9838C74.0998 24.631 75.0198 23.55 75.0198 20.928C75.0198 18.306 74.0998 17.202 71.9838 17.202H69.5918C67.6138 17.202 66.8548 18.076 66.8548 20.169ZM79.7421 14.85H85.8081C88.6701 14.85 89.8761 16.236 89.8761 18.108C89.8761 19.548 89.2641 20.43 88.1481 20.898C89.3001 21.384 89.9121 22.284 89.9121 23.742C89.9121 25.56 88.7241 27 85.8621 27H79.7241V24.876H85.8621C87.1041 24.876 87.6981 24.3 87.6981 23.328C87.6981 22.356 87.0681 21.87 85.8441 21.87H82.1001V19.944H85.7901C87.0321 19.944 87.6441 19.494 87.6441 18.486C87.6441 17.568 87.0861 16.974 85.8081 16.974H79.7421V14.85ZM95.9281 14.856H100.919V17.202H96.6411C95.5601 17.202 95.0771 17.708 95.0771 18.766V27H92.6391V18.398C92.6391 15.96 93.5361 14.856 95.9281 14.856Z" fill="white" transform="matrix(1, 0, 0, 1, -1.7763568394002505e-15, 0)"/>
</svg>
